<svg width="20" height="20" viewBox="0 0 20 20" fill="none" xmlns="http://www.w3.org/2000/svg">
<path d="M8.17463 2.26988C7.96661 2.06105 7.678 1.9324 7.35627 1.9324C7.03535 1.9324 6.74897 2.06105 6.54357 2.26988H6.53832C6.3309 2.47729 6.20225 2.76671 6.20225 3.08642C6.20225 3.40794 6.3309 3.69554 6.53832 3.90094L6.54357 3.90659C6.74897 4.11361 7.03535 4.24044 7.35627 4.24044C7.678 4.24044 7.96661 4.11361 8.17463 3.90659L8.17705 3.90094C8.38528 3.69554 8.51231 3.40794 8.51231 3.08642C8.51231 2.76671 8.38528 2.47729 8.17705 2.26988H8.17463ZM7.35627 18.0675C7.678 18.0675 7.96661 17.9364 8.17463 17.7314L8.17705 17.7254C8.38528 17.5208 8.51231 17.2314 8.51231 16.9133C8.51231 16.5917 8.38528 16.3037 8.17705 16.0953H8.17463C7.96661 15.8845 7.678 15.757 7.35627 15.757C7.03535 15.757 6.74897 15.8845 6.54357 16.0953H6.53832C6.3309 16.3037 6.20225 16.5917 6.20225 16.9133C6.20225 17.2314 6.3309 17.5208 6.53832 17.7254L6.54357 17.7314C6.74897 17.9364 7.03535 18.0675 7.35627 18.0675ZM13.644 14.5709C13.9298 14.4958 14.1885 14.3124 14.3466 14.0349L14.3679 13.9943C14.5084 13.7315 14.5341 13.4278 14.4589 13.1582C14.3832 12.8704 14.1978 12.6151 13.9209 12.4561L13.9045 12.4452C13.6347 12.297 13.3277 12.2647 13.0454 12.3416C12.7584 12.4133 12.5005 12.6044 12.3434 12.8794C12.1842 13.1529 12.1511 13.4672 12.2272 13.7564C12.3058 14.0409 12.4898 14.298 12.7651 14.4588H12.7667C13.0426 14.6173 13.3544 14.6458 13.644 14.5709ZM8.53998 8.81735C8.23704 8.51521 7.81897 8.32577 7.35627 8.32577C6.89418 8.32577 6.47733 8.51521 6.17499 8.81735C5.87366 9.11908 5.68785 9.53533 5.68785 9.99803C5.68785 10.4607 5.87366 10.8788 6.17499 11.184C6.47733 11.4843 6.89418 11.6719 7.35627 11.6719C7.81897 11.6719 8.23704 11.4843 8.53998 11.184C8.84212 10.8788 9.02793 10.4607 9.02793 9.99803C9.02793 9.53533 8.84212 9.11908 8.53998 8.81735ZM7.87431 6.85042C8.54604 6.9611 9.14911 7.28282 9.61019 7.74714H9.61362C9.68694 7.82025 9.75823 7.90083 9.82468 7.98122L10.9769 7.31473C10.822 6.84658 10.8147 6.35722 10.9393 5.89816C11.1035 5.28358 11.502 4.73343 12.0994 4.38868L12.1188 4.37636C12.7097 4.04211 13.3813 3.97243 13.9874 4.13663C14.6013 4.30123 15.1551 4.70152 15.4999 5.29792V5.29974C15.843 5.89291 15.9125 6.57353 15.7489 7.18629C15.5855 7.80066 15.1856 8.35465 14.5888 8.69738L14.4315 8.79028H14.4155C13.8635 9.05304 13.2566 9.09424 12.6992 8.94741C12.2416 8.82623 11.8219 8.57055 11.4931 8.20802L10.3425 8.87268C10.4748 9.22249 10.5479 9.59955 10.5479 9.99803C10.5479 10.3945 10.4748 10.777 10.3425 11.1286L11.4931 11.7915C11.8219 11.4233 12.2416 11.1735 12.6992 11.0519C13.3134 10.884 13.994 10.9553 14.5888 11.3021L14.627 11.3199V11.3217C15.2016 11.6701 15.5873 12.2077 15.7489 12.815C15.9125 13.4241 15.843 14.1052 15.4999 14.6995L15.4791 14.7409L15.4766 14.7375C15.1321 15.3105 14.5888 15.6987 13.9892 15.8629C13.3742 16.025 12.6934 15.9558 12.0994 15.614V15.6094C11.502 15.264 11.1035 14.7127 10.9393 14.0993C10.8147 13.6423 10.822 13.1529 10.9769 12.685L9.82468 12.0201C9.75823 12.1005 9.68694 12.1774 9.61362 12.2505L9.61019 12.2542C9.14911 12.7169 8.54604 13.0384 7.87431 13.1454V14.4768C8.35296 14.5768 8.78153 14.8161 9.1172 15.1519L9.11901 15.1554C9.56899 15.6033 9.8477 16.2274 9.8477 16.9133C9.8477 17.5971 9.56899 18.2176 9.11901 18.6677L9.1172 18.6748C8.66399 19.1248 8.04234 19.4035 7.35627 19.4035C6.67384 19.4035 6.05058 19.1248 5.59838 18.6748H5.59656V18.6677C5.14618 18.2176 4.86687 17.5971 4.86687 16.9133C4.86687 16.2274 5.14618 15.6033 5.59656 15.1554V15.1519H5.59838C5.93384 14.8161 6.36322 14.5768 6.84005 14.4768V13.1454C6.16852 13.0384 5.56647 12.7169 5.10619 12.2542L5.10135 12.2505C4.52656 11.6737 4.16666 10.8788 4.16666 9.99803C4.16666 9.11908 4.52656 8.32415 5.10135 7.74714H5.10619C5.56647 7.28282 6.16852 6.9611 6.84005 6.85042V5.52473C6.36322 5.42132 5.93384 5.182 5.59838 4.84795H5.59656V4.84431C5.14618 4.39232 4.86687 3.77249 4.86687 3.08642C4.86687 2.40398 5.14618 1.7787 5.59656 1.32852L5.59838 1.32671C6.05058 0.874913 6.67384 0.596405 7.35627 0.596405C8.04234 0.596405 8.66399 0.874913 9.1172 1.32671V1.32852H9.11901C9.56899 1.7787 9.8477 2.40398 9.8477 3.08642C9.8477 3.77249 9.56899 4.39232 9.11901 4.84431L9.1172 4.84795C8.78153 5.182 8.35296 5.42132 7.87431 5.52473V6.85042ZM14.3466 5.96622L14.3368 5.95168C14.178 5.68388 13.9243 5.50534 13.644 5.42839C13.3544 5.35144 13.0426 5.38376 12.7651 5.54291H12.7667C12.4898 5.70003 12.3046 5.95693 12.2272 6.24493C12.1511 6.53071 12.1842 6.84658 12.3434 7.12186L12.3488 7.12893C12.5082 7.40057 12.762 7.58274 13.0454 7.65605C13.3302 7.73664 13.6474 7.7025 13.9209 7.54336L13.9357 7.53629C14.2049 7.37553 14.3842 7.12186 14.4589 6.84315C14.5353 6.55555 14.5048 6.2413 14.3466 5.96622Z" fill="#BEE2FF"/>
</svg>
