<svg width="20" height="20" viewBox="0 0 20 20" fill="none" xmlns="http://www.w3.org/2000/svg">
<path d="M5 16.6667C4.30556 16.6667 3.71528 16.4236 3.22917 15.9375C2.74306 15.4514 2.5 14.8611 2.5 14.1667C2.5 13.4722 2.74306 12.882 3.22917 12.3958C3.71528 11.9097 4.30556 11.6667 5 11.6667C5.69444 11.6667 6.28472 11.9097 6.77083 12.3958C7.25694 12.882 7.5 13.4722 7.5 14.1667C7.5 14.8611 7.25694 15.4514 6.77083 15.9375C6.28472 16.4236 5.69444 16.6667 5 16.6667ZM15 16.6667C14.3056 16.6667 13.7153 16.4236 13.2292 15.9375C12.7431 15.4514 12.5 14.8611 12.5 14.1667C12.5 13.4722 12.7431 12.882 13.2292 12.3958C13.7153 11.9097 14.3056 11.6667 15 11.6667C15.6944 11.6667 16.2847 11.9097 16.7708 12.3958C17.2569 12.882 17.5 13.4722 17.5 14.1667C17.5 14.8611 17.2569 15.4514 16.7708 15.9375C16.2847 16.4236 15.6944 16.6667 15 16.6667ZM10 8.33334C9.30556 8.33334 8.71528 8.09029 8.22917 7.60418C7.74306 7.11807 7.5 6.52779 7.5 5.83334C7.5 5.1389 7.74306 4.54862 8.22917 4.06251C8.71528 3.5764 9.30556 3.33334 10 3.33334C10.6944 3.33334 11.2847 3.5764 11.7708 4.06251C12.2569 4.54862 12.5 5.1389 12.5 5.83334C12.5 6.52779 12.2569 7.11807 11.7708 7.60418C11.2847 8.09029 10.6944 8.33334 10 8.33334Z" fill="#BEE2FF"/>
</svg>
