<svg width="20" height="20" viewBox="0 0 20 20" fill="none" xmlns="http://www.w3.org/2000/svg">
<path d="M0.833344 16.6666V14.3333C0.833344 13.8611 0.954871 13.4271 1.19793 13.0312C1.44098 12.6354 1.7639 12.3333 2.16668 12.125C3.02779 11.6944 3.90279 11.3715 4.79168 11.1562C5.68057 10.941 6.58334 10.8333 7.50001 10.8333C8.41668 10.8333 9.31945 10.941 10.2083 11.1562C11.0972 11.3715 11.9722 11.6944 12.8333 12.125C13.2361 12.3333 13.559 12.6354 13.8021 13.0312C14.0451 13.4271 14.1667 13.8611 14.1667 14.3333V16.6666H0.833344ZM15.8333 16.6666V14.1666C15.8333 13.5555 15.6632 12.9687 15.3229 12.4062C14.9827 11.8437 14.5 11.3611 13.875 10.9583C14.5833 11.0416 15.25 11.184 15.875 11.3854C16.5 11.5868 17.0833 11.8333 17.625 12.125C18.125 12.4028 18.507 12.7118 18.7708 13.0521C19.0347 13.3923 19.1667 13.7639 19.1667 14.1666V16.6666H15.8333ZM7.50001 9.99998C6.58334 9.99998 5.79862 9.67359 5.14584 9.02081C4.49307 8.36804 4.16668 7.58331 4.16668 6.66665C4.16668 5.74998 4.49307 4.96526 5.14584 4.31248C5.79862 3.6597 6.58334 3.33331 7.50001 3.33331C8.41668 3.33331 9.2014 3.6597 9.85418 4.31248C10.507 4.96526 10.8333 5.74998 10.8333 6.66665C10.8333 7.58331 10.507 8.36804 9.85418 9.02081C9.2014 9.67359 8.41668 9.99998 7.50001 9.99998ZM15.8333 6.66665C15.8333 7.58331 15.507 8.36804 14.8542 9.02081C14.2014 9.67359 13.4167 9.99998 12.5 9.99998C12.3472 9.99998 12.1528 9.98262 11.9167 9.9479C11.6806 9.91317 11.4861 9.87498 11.3333 9.83331C11.7083 9.38887 11.9965 8.89581 12.1979 8.35415C12.3993 7.81248 12.5 7.24998 12.5 6.66665C12.5 6.08331 12.3993 5.52081 12.1979 4.97915C11.9965 4.43748 11.7083 3.94442 11.3333 3.49998C11.5278 3.43054 11.7222 3.3854 11.9167 3.36456C12.1111 3.34373 12.3056 3.33331 12.5 3.33331C13.4167 3.33331 14.2014 3.6597 14.8542 4.31248C15.507 4.96526 15.8333 5.74998 15.8333 6.66665Z" fill="#BEE2FF"/>
</svg>
