<svg width="20" height="20" viewBox="0 0 20 20" fill="none" xmlns="http://www.w3.org/2000/svg">
<path d="M10.0208 17.5C9.78473 17.5 9.58681 17.4201 9.42709 17.2604C9.26737 17.1007 9.1875 16.9028 9.1875 16.6667V15.7083C8.5625 15.5694 8.01389 15.3264 7.54167 14.9792C7.06945 14.6319 6.6875 14.1458 6.39584 13.5208C6.29862 13.3264 6.29514 13.1215 6.38542 12.9062C6.4757 12.691 6.63889 12.5347 6.875 12.4375C7.06945 12.3542 7.27084 12.3576 7.47917 12.4479C7.6875 12.5382 7.84723 12.6875 7.95834 12.8958C8.19445 13.3125 8.49306 13.6285 8.85417 13.8437C9.21528 14.059 9.65973 14.1667 10.1875 14.1667C10.7569 14.1667 11.2396 14.0382 11.6354 13.7813C12.0313 13.5243 12.2292 13.125 12.2292 12.5833C12.2292 12.0972 12.0764 11.7118 11.7708 11.4271C11.4653 11.1424 10.7569 10.8194 9.64584 10.4583C8.45139 10.0833 7.63195 9.63542 7.18751 9.11458C6.74306 8.59375 6.52084 7.95833 6.52084 7.20833C6.52084 6.30556 6.81251 5.60417 7.39584 5.10417C7.97917 4.60417 8.57639 4.31944 9.1875 4.25V3.33333C9.1875 3.09722 9.26737 2.89931 9.42709 2.73958C9.58681 2.57986 9.78473 2.5 10.0208 2.5C10.2569 2.5 10.4549 2.57986 10.6146 2.73958C10.7743 2.89931 10.8542 3.09722 10.8542 3.33333V4.25C11.3819 4.33333 11.8403 4.50347 12.2292 4.76042C12.6181 5.01736 12.9375 5.33333 13.1875 5.70833C13.3125 5.88889 13.3368 6.09028 13.2604 6.3125C13.184 6.53472 13.0278 6.69444 12.7917 6.79167C12.5972 6.875 12.3958 6.87847 12.1875 6.80208C11.9792 6.72569 11.7847 6.59028 11.6042 6.39583C11.4236 6.20139 11.2118 6.05208 10.9688 5.94792C10.7257 5.84375 10.4236 5.79167 10.0625 5.79167C9.45139 5.79167 8.98612 5.92708 8.66667 6.19792C8.34723 6.46875 8.18751 6.80556 8.18751 7.20833C8.18751 7.66667 8.39584 8.02778 8.81251 8.29167C9.22917 8.55556 9.95139 8.83333 10.9792 9.125C11.9375 9.40278 12.6632 9.84375 13.1563 10.4479C13.6493 11.0521 13.8958 11.75 13.8958 12.5417C13.8958 13.5278 13.6042 14.2778 13.0208 14.7917C12.4375 15.3056 11.7153 15.625 10.8542 15.75V16.6667C10.8542 16.9028 10.7743 17.1007 10.6146 17.2604C10.4549 17.4201 10.2569 17.5 10.0208 17.5Z" fill="#BEE2FF"/>
</svg>
