<svg width="20" height="20" viewBox="0 0 20 20" fill="none" xmlns="http://www.w3.org/2000/svg">
<path fill-rule="evenodd" clip-rule="evenodd" d="M10 2H15.61L18 4.73V15.61L15.27 18H4.39L2 15.27V4.39L4.73 2H10ZM13.56 10C13.5856 10.4827 13.5126 10.9656 13.3456 11.4192C13.1785 11.8728 12.9208 12.2876 12.5881 12.6383C12.2555 12.9891 11.8549 13.2684 11.4108 13.4593C10.9667 13.6502 10.4884 13.7486 10.005 13.7486C9.52161 13.7486 9.04329 13.6502 8.59918 13.4593C8.15508 13.2684 7.75451 12.9891 7.42188 12.6383C7.08925 12.2876 6.83153 11.8728 6.66444 11.4192C6.49735 10.9656 6.42439 10.4827 6.45 10C6.51726 9.10451 6.92047 8.26752 7.57881 7.65677C8.23715 7.04603 9.10199 6.70665 10 6.70665C10.898 6.70665 11.7629 7.04603 12.4212 7.65677C13.0795 8.26752 13.4827 9.10451 13.55 10H13.56Z" fill="#BEE2FF"/>
</svg>
