<svg width="20" height="20" viewBox="0 0 20 20" fill="none" xmlns="http://www.w3.org/2000/svg">
<path d="M3.33334 12.5C2.6389 12.5 2.04862 12.2569 1.56251 11.7708C1.0764 11.2847 0.833344 10.6944 0.833344 9.99999C0.833344 9.30555 1.0764 8.71527 1.56251 8.22916C2.04862 7.74305 2.6389 7.49999 3.33334 7.49999V5.83332C3.33334 5.37499 3.49654 4.98263 3.82293 4.65624C4.14932 4.32985 4.54168 4.16666 5.00001 4.16666H7.50001C7.50001 3.47221 7.74307 2.88193 8.22918 2.39582C8.71529 1.90971 9.30557 1.66666 10 1.66666C10.6945 1.66666 11.2847 1.90971 11.7708 2.39582C12.257 2.88193 12.5 3.47221 12.5 4.16666H15C15.4583 4.16666 15.8507 4.32985 16.1771 4.65624C16.5035 4.98263 16.6667 5.37499 16.6667 5.83332V7.49999C17.3611 7.49999 17.9514 7.74305 18.4375 8.22916C18.9236 8.71527 19.1667 9.30555 19.1667 9.99999C19.1667 10.6944 18.9236 11.2847 18.4375 11.7708C17.9514 12.2569 17.3611 12.5 16.6667 12.5V15.8333C16.6667 16.2917 16.5035 16.684 16.1771 17.0104C15.8507 17.3368 15.4583 17.5 15 17.5H5.00001C4.54168 17.5 4.14932 17.3368 3.82293 17.0104C3.49654 16.684 3.33334 16.2917 3.33334 15.8333V12.5ZM7.50001 10.8333C7.84723 10.8333 8.14237 10.7118 8.38543 10.4687C8.62848 10.2257 8.75001 9.93055 8.75001 9.58332C8.75001 9.2361 8.62848 8.94096 8.38543 8.69791C8.14237 8.45485 7.84723 8.33332 7.50001 8.33332C7.15279 8.33332 6.85765 8.45485 6.61459 8.69791C6.37154 8.94096 6.25001 9.2361 6.25001 9.58332C6.25001 9.93055 6.37154 10.2257 6.61459 10.4687C6.85765 10.7118 7.15279 10.8333 7.50001 10.8333ZM12.5 10.8333C12.8472 10.8333 13.1424 10.7118 13.3854 10.4687C13.6285 10.2257 13.75 9.93055 13.75 9.58332C13.75 9.2361 13.6285 8.94096 13.3854 8.69791C13.1424 8.45485 12.8472 8.33332 12.5 8.33332C12.1528 8.33332 11.8576 8.45485 11.6146 8.69791C11.3715 8.94096 11.25 9.2361 11.25 9.58332C11.25 9.93055 11.3715 10.2257 11.6146 10.4687C11.8576 10.7118 12.1528 10.8333 12.5 10.8333ZM6.66668 14.1667H13.3333V12.5H6.66668V14.1667ZM5.00001 15.8333H15V5.83332H5.00001V15.8333Z" fill="#BEE2FF"/>
</svg>
