<svg width="20" height="20" viewBox="0 0 20 20" fill="none" xmlns="http://www.w3.org/2000/svg">
<path d="M5.83334 11.6667C5.37501 11.6667 4.98265 11.5035 4.65626 11.1771C4.32987 10.8507 4.16668 10.4583 4.16668 10C4.16668 9.54167 4.32987 9.14931 4.65626 8.82292C4.98265 8.49653 5.37501 8.33333 5.83334 8.33333C6.29168 8.33333 6.68404 8.49653 7.01043 8.82292C7.33682 9.14931 7.50001 9.54167 7.50001 10C7.50001 10.4583 7.33682 10.8507 7.01043 11.1771C6.68404 11.5035 6.29168 11.6667 5.83334 11.6667ZM5.83334 15C4.44445 15 3.2639 14.5139 2.29168 13.5417C1.31945 12.5694 0.833344 11.3889 0.833344 10C0.833344 8.61111 1.31945 7.43056 2.29168 6.45833C3.2639 5.48611 4.44445 5 5.83334 5C6.7639 5 7.60765 5.22917 8.36459 5.6875C9.12154 6.14583 9.72223 6.75 10.1667 7.5H17.5L20 10L16.25 13.75L14.5833 12.5L12.9167 13.75L11.1458 12.5H10.1667C9.72223 13.25 9.12154 13.8542 8.36459 14.3125C7.60765 14.7708 6.7639 15 5.83334 15ZM5.83334 13.3333C6.61112 13.3333 7.29515 13.0972 7.88543 12.625C8.4757 12.1528 8.86807 11.5556 9.06251 10.8333H11.6667L12.875 11.6875L14.5833 10.4167L16.0625 11.5625L17.625 10L16.7917 9.16667H9.06251C8.86807 8.44444 8.4757 7.84722 7.88543 7.375C7.29515 6.90278 6.61112 6.66667 5.83334 6.66667C4.91668 6.66667 4.13195 6.99306 3.47918 7.64583C2.8264 8.29861 2.50001 9.08333 2.50001 10C2.50001 10.9167 2.8264 11.7014 3.47918 12.3542C4.13195 13.0069 4.91668 13.3333 5.83334 13.3333Z" fill="#BEE2FF"/>
</svg>
