<svg width="146" height="26" viewBox="0 0 146 26" fill="none" xmlns="http://www.w3.org/2000/svg">
<g clip-path="url(#clip0_2_6046)">
<path d="M9.45769 21.3064L8.75024 22.2053L10.3508 24.7095L10.1839 25.8675H16.974L17.4441 24.7095L14.713 21.3064H9.45769Z" fill="url(#paint0_linear_2_6046)"/>
<path d="M13.1722 6.06734L10.7162 10.3719L22.6957 24.566L22.3549 25.8675H27.8501L28.8442 21.2498L16.0255 6.06499L13.1722 6.06734Z" fill="url(#paint1_linear_2_6046)"/>
<path d="M14.801 2.83127L13.6329 4.98473H16.5308L21.5042 10.9109L24.4608 8.4797V6.93579L23.4337 5.49074L24.1928 4.69996L18.2607 0L14.801 2.83127Z" fill="url(#paint2_linear_2_6046)"/>
<path d="M5.8852 14.8271H4.26583L0 20.2496V25.8675H4.57608L5.38459 24.8154L8.91476 20.2379H14.022L15.5944 17.8255L10.057 11.2451L5.8852 14.8271Z" fill="url(#paint3_linear_2_6046)"/>
</g>
<g clip-path="url(#clip1_2_6046)">
<path d="M68.6838 5.56C70.2238 5.56 70.9437 5.76 71.5037 6.26C72.4037 7.01 73.0438 8.32 73.0438 12.72C73.0438 17.11 72.3937 18.42 71.5037 19.19C70.9437 19.69 70.2238 19.89 68.6838 19.89H63.8337C62.2937 19.89 61.5738 19.69 61.0138 19.19C60.1138 18.42 59.4738 17.11 59.4738 12.72C59.4738 8.32 60.1238 7.02 61.0138 6.26C61.5738 5.76 62.2937 5.56 63.8337 5.56H68.6838ZM144.294 5.56V8.22H139.494V19.9H135.844V8.22H131.084V5.56H144.294ZM48.4938 5.56V11.27H49.4538L54.1938 5.56H58.2338L52.4237 12.29L58.4838 19.89H54.1838L49.5037 13.81H48.5038V19.89H44.8438V5.56H48.4838H48.4938ZM79.3838 5.56C80.1738 5.56 80.5338 5.72 80.9038 6.29L80.9837 6.42L85.9038 14.59H86.1338V11.9L89.6237 17.94V19.88H86.6637C85.9037 19.88 85.5137 19.7 85.1437 19.15L85.0537 19.02L79.6738 10.18H79.4437V19.88H75.9538V5.56H79.3838ZM88.7337 5.56C89.5037 5.56 89.8837 5.74 90.2537 6.28L90.3438 6.42L95.7337 15.26H95.9538V5.56H99.4437V19.89H96.0238C95.2238 19.89 94.8638 19.73 94.4938 19.16L94.4137 19.03L89.4938 10.86H89.2738V13.54L85.7738 7.49V5.56H88.7337ZM114.274 5.56V8.2H106.174V11.27H112.484V13.8H106.184V17.26H114.284V19.9H102.524V5.56H114.264H114.274ZM125.554 5.56C127.114 5.56 127.814 5.76 128.374 6.26C129.194 6.97 129.574 8.06 129.624 10.74H126.134C126.064 8.96 125.864 8.57 125.684 8.4C125.534 8.26 125.324 8.2 124.614 8.2H121.714C120.994 8.2 120.794 8.26 120.634 8.4C120.434 8.57 120.134 9.08 120.134 12.72C120.134 16.37 120.434 16.86 120.634 17.04C120.794 17.17 120.994 17.23 121.704 17.23H124.604C125.324 17.25 125.534 17.17 125.684 17.04C125.864 16.88 126.064 16.54 126.134 14.54H129.644C129.554 17.44 129.194 18.48 128.374 19.19C127.814 19.69 127.114 19.89 125.554 19.89H120.764C119.224 19.89 118.504 19.69 117.954 19.19C117.054 18.42 116.404 17.11 116.404 12.72C116.404 8.32 117.054 7.02 117.954 6.26C118.504 5.76 119.224 5.56 120.764 5.56H125.554ZM67.7437 8.2H64.7638C64.0438 8.2 63.8438 8.26 63.6838 8.4C63.4838 8.57 63.1938 9.08 63.1938 12.72C63.1938 16.37 63.4938 16.86 63.6938 17.04C63.8438 17.17 64.0438 17.23 64.7638 17.23H67.7337C68.4537 17.25 68.6537 17.17 68.8037 17.04C69.0037 16.87 69.2837 16.38 69.3037 13.02V12.72C69.3037 9.08 69.0037 8.57 68.8037 8.4C68.6537 8.26 68.4537 8.2 67.7337 8.2H67.7437Z" fill="white"/>
</g>
<defs>
<linearGradient id="paint0_linear_2_6046" x1="0.0240145" y1="25.8527" x2="22.4724" y2="3.35772" gradientUnits="userSpaceOnUse">
<stop stop-color="#1155CB"/>
<stop offset="1" stop-color="#1DB57C"/>
</linearGradient>
<linearGradient id="paint1_linear_2_6046" x1="0.0250476" y1="25.8527" x2="22.4734" y2="3.35769" gradientUnits="userSpaceOnUse">
<stop stop-color="#1155CB"/>
<stop offset="1" stop-color="#1DB57C"/>
</linearGradient>
<linearGradient id="paint2_linear_2_6046" x1="0.0226632" y1="25.8527" x2="22.471" y2="3.3577" gradientUnits="userSpaceOnUse">
<stop stop-color="#1155CB"/>
<stop offset="1" stop-color="#1DB57C"/>
</linearGradient>
<linearGradient id="paint3_linear_2_6046" x1="0.0240083" y1="25.8527" x2="22.4724" y2="3.3577" gradientUnits="userSpaceOnUse">
<stop stop-color="#1155CB"/>
<stop offset="1" stop-color="#1DB57C"/>
</linearGradient>
<clipPath id="clip0_2_6046">
<rect width="28.8438" height="26" fill="white"/>
</clipPath>
<clipPath id="clip1_2_6046">
<rect width="100" height="15" fill="white" transform="translate(44.8438 5.5)"/>
</clipPath>
</defs>
</svg>
